<svg xmlns="http://www.w3.org/2000/svg" xmlns:xlink="http://www.w3.org/1999/xlink" version="1.1" x="0px" y="0px" viewBox="0 0 512 640" style="enable-background:new 0 0 512 512;" xml:space="preserve"><g><g><path d="M256.05,297.006c-22.607,0-41-18.393-41-41s18.393-41,41-41c22.607,0,41,18.393,41,41S278.657,297.006,256.05,297.006z     M256.05,221.006c-19.299,0-35,15.701-35,35s15.701,35,35,35c19.298,0,35-15.701,35-35S275.349,221.006,256.05,221.006z"/></g><g><path d="M257.05,92.006c-19.299,0-35-15.252-35-34c0-19.626,15.374-35,35-35c18.748,0,34,15.701,34,35    C291.05,76.753,275.798,92.006,257.05,92.006z M257.05,29.006c-16.261,0-29,12.738-29,29c0,15.439,13.009,28,29,28    c15.439,0,28-12.561,28-28C285.05,42.015,272.489,29.006,257.05,29.006z"/></g><g><path d="M287.069,53.006c-0.005,0-0.013,0-0.02,0h-1c-9.185,0-18.106-3.863-25.121-10.879c-1.172-1.171-1.172-3.071,0-4.242    c3.228-3.228,5.491-6.729,6.211-9.606c0.221-0.883,0.83-1.618,1.656-1.998c0.826-0.38,1.781-0.365,2.596,0.042    c9.897,4.948,16.464,13.014,18.526,22.739c0.099,0.296,0.151,0.614,0.151,0.944C290.069,51.663,288.727,53.006,287.069,53.006z     M267.29,39.834c4.671,3.947,10.116,6.365,15.757,7.002c-2.47-6.672-7.377-10.956-11.413-13.499    C270.43,35.843,268.785,38.084,267.29,39.834z"/></g><g><path d="M240.05,53.006c-5.331,0-9.754-1.023-14.342-3.317c-1.335-0.667-1.977-2.215-1.504-3.632    c4.524-13.572,18.031-23.051,32.846-23.051c4.826,0,10.188,1.24,14.342,3.317c1.335,0.667,1.977,2.215,1.504,3.632    C268.372,43.527,254.865,53.006,240.05,53.006z M230.893,45.422c2.869,1.087,5.787,1.583,9.158,1.583    c11.303,0,21.67-6.614,26.14-16.38c-2.871-1.021-6.177-1.62-9.141-1.62C245.732,29.006,235.353,35.636,230.893,45.422z"/></g><g><path d="M315.05,154.006h-118c-1.657,0-3-1.343-3-3v-34c0-1.193,0.708-2.273,1.801-2.75l39-17c1.129-0.493,2.448-0.244,3.32,0.629    l16.982,16.982l18.883-17.085c0.874-0.79,2.129-0.997,3.212-0.525l39,17c1.094,0.477,1.801,1.557,1.801,2.75v34    C318.05,152.663,316.707,154.006,315.05,154.006z M200.05,148.006h112v-29.035l-35.424-15.441l-19.563,17.701    c-1.186,1.073-3.004,1.028-4.134-0.104l-17.555-17.554l-35.324,15.398V148.006z"/></g><g><path d="M277.05,126.006h-42c-0.818,0-1.601-0.334-2.167-0.925s-0.866-1.388-0.83-2.205l1-23c0.072-1.655,1.495-2.946,3.127-2.867    c1.655,0.072,2.939,1.472,2.867,3.127l-0.864,19.87h35.733l-0.864-19.87c-0.072-1.655,1.212-3.056,2.867-3.127    c1.63-0.072,3.055,1.211,3.127,2.867l1,23c0.035,0.817-0.265,1.614-0.83,2.205C278.65,125.671,277.868,126.006,277.05,126.006z"/></g><g><path d="M256.05,121.006h-1c-0.757,0-1.486-0.286-2.042-0.802l-14-13c-0.611-0.567-0.958-1.364-0.958-2.198v-20    c0-1.081,0.582-2.078,1.522-2.611c0.941-0.533,2.095-0.519,3.021,0.039c4.173,2.504,8.497,3.572,14.456,3.572    c4.702,0,9.197-0.953,12.658-2.683c0.93-0.466,2.034-0.416,2.919,0.131c0.885,0.546,1.423,1.512,1.423,2.552v19    c0,0.87-0.378,1.697-1.035,2.267l-15,13C257.47,120.746,256.772,121.006,256.05,121.006z M244.05,103.698l11.552,10.727    l12.448-10.788V90.412c-3.372,1.039-7.146,1.594-11,1.594c-4.994,0-9.169-0.689-13-2.186V103.698z"/></g><g><path d="M256.05,221.006c-1.657,0-3-1.343-3-3v-67c0-1.657,1.343-3,3-3s3,1.343,3,3v67    C259.051,219.663,257.707,221.006,256.05,221.006z"/></g><g><path d="M428.697,191.791c-12.944,0-24.531-6.629-30.259-17.306c-4.727-7.917-6.074-17.14-3.794-25.979    c2.275-8.817,7.909-16.301,15.861-21.073c5.354-3.212,11.508-4.91,17.798-4.91c12.515,0,23.777,6.541,29.394,17.071    c9.75,17.332,4.56,37.986-12.104,47.984c-0.044,0.026-0.088,0.051-0.132,0.075C440.386,190.36,434.589,191.791,428.697,191.791z     M428.304,128.523c-5.203,0-10.289,1.402-14.71,4.055c-6.594,3.956-11.26,10.146-13.139,17.427    c-1.883,7.295-0.758,14.915,3.167,21.457c0.026,0.043,0.051,0.087,0.075,0.132c4.67,8.756,14.249,14.196,25,14.196    c4.885,0,9.681-1.174,13.874-3.396c13.76-8.302,18.003-25.449,9.864-39.917C447.832,133.848,438.598,128.523,428.304,128.523z"/></g><g><path d="M450.049,183.006c-0.386,0-0.776-0.075-1.147-0.229c-1.121-0.464-1.852-1.558-1.852-2.771v-0.164    c-4.381-7.488-5.389-16.65-2.91-26.563c0.401-1.607,2.026-2.588,3.638-2.183c3.642,0.911,7.45,0.911,12.272,0.911    c1.657,0,3,1.343,3,3c0,10.626-3.762,20.004-10.879,27.121C451.598,182.701,450.83,183.006,450.049,183.006z M449.362,157.512    c-1.126,6.263-0.587,11.906,1.605,16.845c4.071-5.52,5.563-11.463,5.961-16.362C454.281,157.968,451.799,157.869,449.362,157.512z    "/></g><g><path d="M455.064,158.385c-13.066,0-25.177-6.846-31.606-17.867c-0.032-0.056-0.063-0.112-0.092-0.17    c-2.093-4.186-3.181-8.366-4.258-13.753c-0.161-0.803,0.014-1.637,0.483-2.308c0.469-0.671,1.192-1.121,2.002-1.246    c1.794-0.276,3.638-0.416,5.481-0.416c12.956,0,24.951,6.627,30.578,16.89c3.274,5.475,4.355,9.989,5.338,14.903    c0.161,0.803-0.014,1.637-0.483,2.308c-0.469,0.671-1.192,1.121-2.002,1.246C458.721,158.246,456.89,158.385,455.064,158.385z     M428.689,137.578c5.371,9.135,15.468,14.807,26.375,14.807c0.449,0,0.899-0.01,1.348-0.03c-0.777-3.271-1.799-6.245-3.935-9.805    c-0.021-0.035-0.042-0.071-0.062-0.107c-4.508-8.265-14.691-13.817-25.341-13.817c-0.466,0-0.931,0.01-1.395,0.032    C426.461,132.06,427.325,134.826,428.689,137.578z"/></g><g><path d="M376.053,258.007c-1.042,0-2.054-0.544-2.607-1.513l-28-49L314.448,153.5c-0.819-1.428-0.336-3.249,1.084-4.082l29-17    c1.039-0.609,2.339-0.538,3.307,0.18l35,26c0.957,0.711,1.402,1.921,1.134,3.083l-5.372,23.279l23.331,7.179    c1.138,0.35,1.961,1.339,2.098,2.521l5,43c0.14,1.198-0.451,2.362-1.5,2.957l-30,17    C377.062,257.881,376.554,258.007,376.053,258.007z M321.132,153.09l29.52,51.422l26.521,46.41l25.668-14.545l-4.544-39.079    l-24.128-7.424c-1.504-0.462-2.396-2.009-2.041-3.542l5.559-24.087l-31.831-23.646L321.132,153.09z"/></g><g><path d="M382.053,210.006c-1.032,0-2.037-0.533-2.595-1.489l-21-36c-0.417-0.716-0.521-1.574-0.283-2.368    c0.236-0.795,0.792-1.456,1.533-1.827l20-10c1.481-0.741,3.283-0.141,4.025,1.341c0.74,1.482,0.14,3.284-1.342,4.025    l-17.138,8.569l17.881,30.653l16.412-9.502c1.434-0.831,3.269-0.341,4.1,1.093c0.83,1.434,0.34,3.269-1.094,4.099l-19,11    C383.08,209.876,382.563,210.006,382.053,210.006z"/></g><g><path d="M395.05,196.006c-0.289,0-0.58-0.042-0.862-0.126l-20-6c-1.269-0.381-2.138-1.549-2.138-2.874v-1    c0-0.219,0.024-0.437,0.071-0.651l4-18c0.181-0.812,0.69-1.513,1.407-1.935l17-10c0.837-0.492,1.863-0.549,2.747-0.152    c0.887,0.396,1.525,1.198,1.716,2.15c0.977,4.88,1.898,9.491,4.631,14.045c0.083,0.137,0.153,0.281,0.213,0.429    c1.688,4.219,5.247,6.888,9.015,9.714c0.812,0.608,1.26,1.585,1.193,2.596c-0.066,1.012-0.639,1.921-1.522,2.418l-16,9    C396.067,195.875,395.561,196.006,395.05,196.006z M378.375,184.872l16.315,4.895l10.95-6.16c-2.931-2.426-5.619-5.239-7.284-9.26    c-2.327-3.943-3.515-7.831-4.386-11.637l-12.275,7.221L378.375,184.872z"/></g><g><path d="M289.053,240.006c-1.044,0-2.058-0.545-2.61-1.517c-0.819-1.44-0.316-3.271,1.124-4.091l58-33    c1.44-0.819,3.272-0.316,4.091,1.124c0.819,1.44,0.316,3.271-1.124,4.091l-58,33C290.065,239.88,289.556,240.006,289.053,240.006z    "/></g><g><path d="M427.864,390.45c-6.043,0-12.046-1.685-17.358-4.872c-16.744-10.046-22.589-31.183-13.028-47.116    c6.478-10.796,17.853-17.241,30.428-17.241c5.756,0,11.48,1.432,16.557,4.138c0.044,0.024,0.088,0.049,0.132,0.075    c8,4.8,13.802,12.253,16.337,20.985c2.602,8.96,1.426,18.239-3.309,26.131C451.334,383.731,440.193,390.45,427.864,390.45z     M427.905,327.221c-10.448,0-19.899,5.356-25.283,14.329c-3.865,6.442-4.821,14.032-2.691,21.369    c2.112,7.275,6.965,13.495,13.663,17.515c4.379,2.628,9.314,4.017,14.271,4.017c10.132,0,19.317-5.575,24.571-14.915    c3.907-6.516,4.863-14.105,2.733-21.442c-2.105-7.252-6.933-13.455-13.598-17.476    C437.378,328.396,432.655,327.221,427.905,327.221z"/></g><g><path d="M427.914,390.415c-3.399,0-6.7-0.525-9.813-1.563c-0.987-0.328-1.732-1.145-1.972-2.156    c-0.238-1.012,0.063-2.075,0.799-2.811l0.722-0.723c4.698-8.006,12.397-13.998,20.672-16.066c1.36-0.343,2.781,0.311,3.411,1.568    c1.994,3.99,3.879,7.758,6.717,11.542c0.504,0.672,0.703,1.524,0.549,2.35c-0.154,0.826-0.647,1.549-1.359,1.994    C441.588,388.332,434.582,390.415,427.914,390.415z M424.151,384.145c5.644,0.826,11.913-0.309,17.546-3.132    c-1.625-2.491-2.951-4.964-4.189-7.396C432.397,375.498,427.56,379.312,424.151,384.145z"/></g><g><path d="M446.05,385.006c-0.026,0-0.053,0-0.079-0.001c-0.822-0.021-1.601-0.381-2.15-0.992    c-10.161-11.289-11.914-27.572-4.362-40.519c0.059-0.1,0.122-0.196,0.191-0.288c3.128-4.171,6.255-7.298,9.279-10.321    c0.582-0.582,1.376-0.907,2.2-0.878c0.822,0.021,1.601,0.381,2.15,0.992c9.952,11.057,11.803,27.573,4.449,39.384    c-1.872,4.494-5.007,7.438-7.779,10.041c-0.614,0.577-1.215,1.14-1.778,1.703S446.845,385.006,446.05,385.006z M444.556,346.666    c-5.621,9.771-4.841,21.822,1.774,30.926c2.33-2.196,4.66-4.515,5.935-7.7c0.069-0.173,0.154-0.339,0.254-0.496    c5.576-8.763,4.764-20.88-1.7-29.897C448.695,341.669,446.633,343.912,444.556,346.666z"/></g><g><path d="M346.05,380.006c-0.522,0-1.047-0.137-1.518-0.412l-29-17c-1.418-0.831-1.902-2.649-1.087-4.076l28-49l31.003-54.005    c0.821-1.431,2.643-1.931,4.081-1.116l30,17c1.049,0.595,1.64,1.759,1.5,2.957l-5,43c-0.142,1.221-1.014,2.23-2.199,2.55    l-23.229,6.254l5.378,24.199c0.257,1.155-0.189,2.353-1.14,3.059l-35,26C347.311,379.807,346.681,380.006,346.05,380.006z     M321.127,358.918l24.728,14.496l31.845-23.656l-5.578-25.102c-0.348-1.566,0.599-3.13,2.148-3.547l24.035-6.472l4.535-39.003    l-25.674-14.548l-29.515,51.412L321.127,358.918z"/></g><g><path d="M381.048,354.007c-0.451,0-0.909-0.103-1.34-0.317l-20-10c-0.741-0.371-1.297-1.032-1.533-1.827    c-0.237-0.795-0.134-1.651,0.283-2.368l21-36c0.41-0.703,1.089-1.209,1.88-1.402c0.787-0.194,1.625-0.057,2.313,0.378l19,12    c1.401,0.885,1.819,2.737,0.935,4.138c-0.884,1.403-2.737,1.821-4.138,0.935l-16.373-10.34l-17.821,30.552l17.138,8.568    c1.481,0.741,2.082,2.543,1.342,4.025C383.207,353.398,382.147,354.007,381.048,354.007z"/></g><g><path d="M396.05,357.006c-0.507,0-1.014-0.128-1.471-0.386l-16-9c-0.763-0.429-1.3-1.168-1.471-2.026l-4-20    c-0.039-0.193-0.059-0.391-0.059-0.588v-1c0-1.348,0.898-2.53,2.197-2.891l18-5c0.784-0.219,1.622-0.107,2.324,0.305l17,10    c0.947,0.558,1.515,1.589,1.477,2.688c-0.037,1.099-0.673,2.089-1.656,2.581c-3.473,1.736-7.008,5.291-9.71,9.762    c-2.443,4.911-3.632,9.019-3.632,12.555c0,1.065-0.565,2.052-1.485,2.59C397.097,356.869,396.573,357.006,396.05,357.006z     M382.722,343.066l10.832,6.094c0.644-3.212,1.907-6.684,3.813-10.496c0.034-0.068,0.071-0.136,0.111-0.202    c2.217-3.695,4.972-6.914,7.911-9.306l-11.763-6.919l-14.277,3.966L382.722,343.066z"/></g><g><path d="M347.047,311.007c-0.503,0-1.013-0.127-1.48-0.394l-58-33c-1.44-0.819-1.943-2.651-1.124-4.091s2.652-1.943,4.091-1.124    l58,33c1.44,0.819,1.943,2.651,1.124,4.091C349.104,310.461,348.091,311.007,347.047,311.007z"/></g><g><path d="M255.05,489.006c-18.748,0-34-15.701-34-35c0-18.748,15.252-34,34-34c19.298,0,35,15.252,35,34    C290.05,473.632,274.676,489.006,255.05,489.006z M255.05,426.006c-15.439,0-28,12.561-28,28c0,15.99,12.561,29,28,29    c16.261,0,29-12.738,29-29C284.05,438.566,271.041,426.006,255.05,426.006z"/></g><g><path d="M242.05,486.006c-0.46,0-0.92-0.105-1.342-0.316c-10.018-5.009-16.623-13.211-18.6-23.096    c-0.176-0.881,0.052-1.795,0.622-2.49c0.57-0.694,1.421-1.098,2.32-1.098h1c9.185,0,18.106,3.863,25.121,10.879    c1.172,1.171,1.172,3.071,0,4.242c-3.228,3.229-5.491,6.729-6.21,9.606c-0.221,0.883-0.831,1.618-1.657,1.998    C242.906,485.914,242.478,486.006,242.05,486.006z M229.054,465.175c2.47,6.673,7.377,10.956,11.412,13.499    c1.205-2.505,2.85-4.746,4.344-6.497C240.139,468.23,234.694,465.813,229.054,465.175z"/></g><g><path d="M255.05,489.006c-4.827,0-10.188-1.24-14.342-3.316c-1.335-0.668-1.977-2.216-1.504-3.632    c4.524-13.572,18.031-23.052,32.846-23.052c5.331,0,9.754,1.022,14.342,3.316c1.335,0.668,1.977,2.216,1.504,3.632    C283.372,479.526,269.865,489.006,255.05,489.006z M245.91,481.386c2.871,1.021,6.177,1.62,9.141,1.62    c11.318,0,21.697-6.631,26.157-16.417c-2.869-1.086-5.786-1.583-9.157-1.583C260.746,465.006,250.379,471.62,245.91,481.386z"/></g><g><path d="M276.051,415.006c-0.78,0-1.548-0.304-2.122-0.879l-16.982-16.981l-18.883,17.085c-0.874,0.791-2.131,0.996-3.211,0.525    l-39-17c-1.094-0.477-1.801-1.557-1.801-2.75v-34c0-1.657,1.343-3,3-3h118c1.657,0,3,1.343,3,3v34c0,1.193-0.707,2.273-1.801,2.75    l-39,17C276.862,414.924,276.455,415.006,276.051,415.006z M200.05,393.041l35.423,15.44l19.563-17.7    c1.185-1.072,3.003-1.028,4.134,0.104l17.555,17.554l35.324-15.397v-29.035h-112V393.041z"/></g><g><path d="M276.052,415.006c-0.044,0-0.088-0.001-0.132-0.003c-1.655-0.072-2.939-1.472-2.867-3.127l0.864-19.87h-35.733    l0.864,19.87c0.072,1.655-1.211,3.055-2.867,3.127c-1.652,0.086-3.056-1.211-3.127-2.867l-1-23    c-0.036-0.817,0.264-1.613,0.83-2.205c0.566-0.591,1.349-0.925,2.167-0.925h42c0.818,0,1.601,0.334,2.167,0.925    c0.565,0.592,0.865,1.388,0.83,2.205l-1,23C278.977,413.747,277.648,415.006,276.052,415.006z"/></g><g><path d="M271.05,430.006c-0.534,0-1.068-0.143-1.544-0.428c-4.173-2.504-8.496-3.572-14.456-3.572    c-4.702,0-9.198,0.953-12.658,2.684c-0.93,0.464-2.034,0.415-2.919-0.132c-0.884-0.547-1.423-1.512-1.423-2.552v-19    c0-0.87,0.378-1.697,1.035-2.267l15-13c0.545-0.474,1.243-0.733,1.965-0.733h1c0.757,0,1.486,0.286,2.041,0.802l14,13    c0.611,0.567,0.959,1.364,0.959,2.198v20c0,1.081-0.581,2.078-1.521,2.61C272.069,429.876,271.56,430.006,271.05,430.006z     M255.05,420.006c4.994,0,9.169,0.688,13,2.186v-13.877l-11.552-10.727l-12.448,10.788V421.6    C247.422,420.561,251.197,420.006,255.05,420.006z"/></g><g><path d="M256.05,364.006c-1.657,0-3-1.343-3-3v-67c0-1.657,1.343-3,3-3s3,1.343,3,3v67    C259.051,362.663,257.707,364.006,256.05,364.006z"/></g><g><path d="M84.013,389.45c-12.664,0-23.993-6.895-29.594-17.999c-9.79-16.436-4.494-37.068,12.088-47.018    c0.043-0.026,0.087-0.051,0.132-0.075c5.075-2.706,10.872-4.138,16.764-4.138c12.944,0,24.531,6.63,30.259,17.307    c4.727,7.916,6.075,17.14,3.793,25.979c-2.275,8.817-7.908,16.301-15.861,21.072C96.282,387.766,90.203,389.45,84.013,389.45z     M69.529,329.617c-13.679,8.254-18.033,25.301-9.906,38.845c0.04,0.066,0.077,0.134,0.111,0.202    c4.561,9.12,13.864,14.786,24.28,14.786c5.102,0,10.114-1.389,14.494-4.017c6.593-3.956,11.259-10.146,13.139-17.428    c1.882-7.294,0.757-14.914-3.167-21.456c-0.026-0.044-0.051-0.088-0.075-0.132c-4.67-8.757-14.25-14.197-25-14.197    C78.518,326.221,73.723,327.396,69.529,329.617z"/></g><g><path d="M65.052,361.006c-0.241,0-0.486-0.028-0.729-0.09c-3.642-0.91-7.451-0.91-12.272-0.91c-1.657,0-3-1.343-3-3    c0-10.626,3.762-20.005,10.879-27.121c0.857-0.859,2.148-1.116,3.269-0.65c1.121,0.464,1.852,1.558,1.852,2.771v0.16    c5.022,8.49,6.052,18.244,2.809,26.894C67.412,360.252,66.276,361.006,65.052,361.006z M55.171,354.017    c2.744,0.028,5.31,0.133,7.833,0.522c1.435-5.549,0.796-11.398-1.84-16.928C57.068,343.144,55.571,349.105,55.171,354.017z"/></g><g><path d="M85.067,389.385c-13.074,0-25.044-6.977-30.578-17.797c-3.278-4.468-4.378-8.985-5.38-13.994    c-0.161-0.803,0.014-1.637,0.483-2.308c0.47-0.671,1.193-1.121,2.002-1.245c1.785-0.275,3.616-0.414,5.442-0.414    c13.066,0,25.177,6.847,31.605,17.867c0.033,0.056,0.063,0.112,0.092,0.17c2.093,4.186,3.181,8.365,4.259,13.754    c0.161,0.803-0.014,1.637-0.483,2.308c-0.47,0.671-1.193,1.121-2.002,1.245C88.721,389.246,86.891,389.385,85.067,389.385z     M55.691,359.657c0.764,3.172,1.75,5.869,3.759,8.549c0.108,0.144,0.203,0.297,0.283,0.458    c4.471,8.942,14.415,14.721,25.333,14.721c0.451,0,0.902-0.01,1.353-0.03c-0.781-3.403-1.645-6.169-3.01-8.92    c-5.371-9.136-15.467-14.808-26.374-14.808C56.587,359.627,56.139,359.637,55.691,359.657z"/></g><g><path d="M166.051,380.006c-0.632,0-1.261-0.199-1.79-0.592l-35-26c-0.957-0.711-1.402-1.921-1.134-3.083l5.372-23.279    l-23.331-7.179c-1.137-0.35-1.96-1.339-2.098-2.521l-5-43c-0.139-1.198,0.452-2.362,1.501-2.957l30-17    c1.438-0.816,3.264-0.313,4.083,1.122l28,49l30.997,53.995c0.82,1.428,0.336,3.249-1.084,4.081l-29,17    C167.097,379.869,166.573,380.006,166.051,380.006z M134.415,349.768l31.831,23.646l24.723-14.493l-29.52-51.422l-26.52-46.409    l-25.669,14.545l4.544,39.08l24.128,7.424c1.504,0.463,2.395,2.009,2.041,3.542L134.415,349.768z"/></g><g><path d="M131.053,354.007c-1.101,0-2.16-0.608-2.686-1.659c-0.741-1.482-0.141-3.284,1.341-4.025l17.138-8.568l-17.881-30.653    l-16.413,9.502c-1.435,0.83-3.269,0.341-4.099-1.094c-0.83-1.434-0.341-3.27,1.093-4.1l19-11c1.431-0.826,3.261-0.343,4.094,1.085    l21,36c0.418,0.717,0.521,1.573,0.284,2.368s-0.792,1.456-1.533,1.827l-20,10C131.961,353.904,131.503,354.007,131.053,354.007z"/></g><g><path d="M116.05,357.006c-0.417,0-0.834-0.087-1.226-0.262c-0.886-0.396-1.526-1.198-1.716-2.15    c-0.976-4.88-1.898-9.49-4.63-14.044c-0.083-0.138-0.154-0.281-0.213-0.43c-1.688-4.219-5.247-6.889-9.014-9.714    c-0.811-0.608-1.26-1.585-1.194-2.597s0.639-1.922,1.523-2.418l16-9c0.71-0.401,1.553-0.493,2.333-0.259l20,6    c1.269,0.38,2.138,1.548,2.138,2.873v1c0,0.219-0.024,0.438-0.071,0.65l-4,18c-0.181,0.813-0.69,1.514-1.408,1.936l-17,10    C117.104,356.867,116.578,357.006,116.05,357.006z M113.744,337.665c2.327,3.943,3.515,7.831,4.386,11.638l12.275-7.222    l3.32-14.94l-16.315-4.895l-10.95,6.159C109.39,330.832,112.079,333.645,113.744,337.665z"/></g><g><path d="M165.053,311.007c-1.043,0-2.058-0.546-2.61-1.518c-0.819-1.439-0.316-3.271,1.124-4.091l58-33    c1.441-0.819,3.272-0.315,4.091,1.124c0.819,1.439,0.316,3.271-1.124,4.091l-58,33    C166.065,310.88,165.556,311.007,165.053,311.007z"/></g><g><path d="M84.195,190.791c-5.756,0-11.481-1.431-16.556-4.138c-0.044-0.023-0.088-0.048-0.132-0.075    c-8-4.8-13.802-12.253-16.337-20.986c-2.601-8.959-1.426-18.239,3.309-26.13c6.288-11.182,17.428-17.901,29.757-17.901    c6.044,0,12.046,1.685,17.358,4.872c16.744,10.046,22.589,31.183,13.029,47.116C108.145,184.345,96.77,190.791,84.195,190.791z     M70.529,181.394c4.193,2.223,8.917,3.396,13.666,3.396c10.448,0,19.9-5.356,25.283-14.328c3.866-6.443,4.821-14.033,2.691-21.37    c-2.112-7.275-6.964-13.495-13.663-17.514c-4.38-2.627-9.315-4.017-14.271-4.017c-10.132,0-19.317,5.576-24.57,14.915    c-3.908,6.516-4.864,14.105-2.734,21.443C59.037,171.171,63.864,177.374,70.529,181.394z"/></g><g><path d="M73.05,145.006c-1.115,0-2.166-0.625-2.683-1.659c-1.995-3.99-3.879-7.758-6.717-11.542    c-0.504-0.672-0.703-1.524-0.549-2.35s0.647-1.549,1.359-1.994c6.052-3.783,13.057-5.866,19.726-5.866    c3.399,0,6.701,0.526,9.813,1.563c0.986,0.329,1.732,1.145,1.971,2.157c0.239,1.012-0.063,2.076-0.799,2.811l-0.722,0.723    c-4.697,8.006-12.397,13.998-20.671,16.067C73.535,144.977,73.291,145.006,73.05,145.006z M70.403,130.999    c1.625,2.491,2.952,4.963,4.189,7.395c5.111-1.88,9.948-5.694,13.357-10.526C82.303,127.037,76.037,128.176,70.403,130.999z"/></g><g><path d="M61.05,180.006c-0.026,0-0.053,0-0.079-0.001c-0.822-0.021-1.6-0.38-2.151-0.992    c-10.018-11.13-11.826-27.792-4.301-39.618c3.148-5.25,6.331-8.432,9.41-11.51c0.582-0.583,1.383-0.891,2.2-0.878    c0.822,0.021,1.6,0.38,2.151,0.992c10.161,11.29,11.913,27.573,4.361,40.519c-0.058,0.1-0.122,0.196-0.191,0.288    c-3.128,4.171-6.255,7.298-9.279,10.321C62.608,179.69,61.845,180.006,61.05,180.006z M65.831,134.504    c-2.106,2.205-4.151,4.617-6.208,8.045c-5.614,8.824-4.804,20.946,1.659,29.965c2.123-2.171,4.186-4.415,6.263-7.168    C73.148,155.605,72.389,143.598,65.831,134.504z"/></g><g><path d="M136.047,258.007c-0.501,0-1.009-0.126-1.476-0.391l-30-17c-1.049-0.594-1.64-1.759-1.501-2.957l5-43    c0.142-1.22,1.014-2.231,2.2-2.55l23.229-6.254l-5.377-24.198c-0.256-1.155,0.19-2.354,1.14-3.059l35-26    c0.966-0.718,2.267-0.79,3.306-0.18l29,17c1.418,0.831,1.903,2.649,1.087,4.076l-28,49L138.652,256.5    C138.098,257.465,137.087,258.007,136.047,258.007z M109.26,236.376l25.674,14.548l29.515-51.413l26.525-46.419l-24.728-14.496    l-31.845,23.656l5.578,25.101c0.348,1.567-0.599,3.13-2.149,3.548l-24.035,6.471L109.26,236.376z"/></g><g><path d="M130.05,211.006c-0.6,0-1.191-0.18-1.694-0.524l-19-13c-1.368-0.936-1.718-2.803-0.782-4.17    c0.935-1.368,2.802-1.719,4.17-0.782l16.308,11.158l17.829-31.413l-17.172-8.586c-1.482-0.741-2.083-2.543-1.341-4.025    c0.74-1.481,2.543-2.083,4.025-1.341l20,10c0.736,0.368,1.289,1.022,1.528,1.81s0.145,1.639-0.261,2.354l-21,37    c-0.414,0.73-1.115,1.253-1.933,1.442C130.502,210.98,130.276,211.006,130.05,211.006z"/></g><g><path d="M118.05,196.006c-0.53,0-1.056-0.141-1.521-0.414l-17-10c-0.948-0.558-1.515-1.589-1.477-2.688    c0.037-1.099,0.673-2.089,1.656-2.581c3.473-1.737,7.007-5.291,9.71-9.763c2.443-4.911,3.631-9.019,3.631-12.554    c0-1.066,0.565-2.052,1.485-2.59c0.921-0.537,2.056-0.547,2.985-0.025l16,9c0.762,0.429,1.299,1.169,1.471,2.026l4,20    c0.039,0.194,0.058,0.391,0.058,0.588v1c0,1.348-0.898,2.53-2.197,2.891l-18,5C118.589,195.97,118.319,196.006,118.05,196.006z     M106.712,182.855l11.762,6.919l14.277-3.966l-3.373-16.863l-10.833-6.093c-0.644,3.212-1.907,6.684-3.813,10.496    c-0.034,0.068-0.071,0.136-0.111,0.202C112.405,177.245,109.651,180.464,106.712,182.855z"/></g><g><path d="M223.047,240.006c-0.502,0-1.012-0.126-1.48-0.393l-58-33c-1.44-0.819-1.943-2.651-1.124-4.091    c0.819-1.44,2.65-1.944,4.091-1.124l58,33c1.44,0.819,1.943,2.651,1.124,4.091C225.105,239.461,224.091,240.006,223.047,240.006z"/></g><g><path d="M256.05,317.006c-33.636,0-61-27.364-61-61s27.364-61,61-61c33.635,0,61,27.364,61,61S289.686,317.006,256.05,317.006z     M256.05,201.006c-30.327,0-55,24.673-55,55s24.673,55,55,55c30.327,0,55-24.673,55-55S286.377,201.006,256.05,201.006z"/></g></g><text x="0" y="527" fill="#000000" font-size="5px" font-weight="bold" font-family="'Helvetica Neue', Helvetica, Arial-Unicode, Arial, Sans-serif">Created by Flatart</text><text x="0" y="532" fill="#000000" font-size="5px" font-weight="bold" font-family="'Helvetica Neue', Helvetica, Arial-Unicode, Arial, Sans-serif">from the Noun Project</text></svg>