<svg xmlns="http://www.w3.org/2000/svg" xmlns:xlink="http://www.w3.org/1999/xlink" version="1.1" x="0px" y="0px" viewBox="0 0 90 112.5" enable-background="new 0 0 90 90" xml:space="preserve"><path fill-rule="evenodd" clip-rule="evenodd" d="M19.138,30.13c-1.011,0-2.036,0.495-2.645,1.568l-9,15.869  c-1.36,2.62,2.459,4.839,4.323,1.937l6.047-8.541l-1.677,10.333l-2.359,21.708c0.14,2.781,5.479,2.767,5.801,0l3.344-14.167  c0.057-0.447,0.36-0.828,0.828-0.828c0.464,0,0.771,0.381,0.823,0.828l1.672,14.167c0.328,2.767,5.661,2.781,5.803,0l-0.688-20.031  l1.672-17.156h2.885l1.495,2.869v12.609l-2.359,21.708c0.14,2.781,5.473,2.767,5.801,0l3.344-15.837  c0.052-0.453,0.36-0.829,0.823-0.829c0.469,0,0.772,0.376,0.824,0.829l3.348,15.837c0.324,2.767,5.657,2.781,5.803,0L52.68,51.297  V38.687l1.5-2.869h2.74l1.672,17.156l-0.688,20.031c0.141,2.781,5.475,2.767,5.803,0l1.672-14.167  c0.052-0.447,0.359-0.828,0.828-0.828c0.464,0,0.765,0.381,0.817,0.828l3.349,14.167c0.328,2.767,5.656,2.781,5.803,0L73.81,51.297  l-1.672-10.333l6.047,8.541c1.865,2.901,5.683,0.683,4.324-1.937l-9-15.869c-0.609-1.073-1.641-1.568-2.652-1.568h-1.249  c-1.464,0.885-3.224,1.396-5.079,1.396c-1.853,0-3.615-0.511-5.077-1.396h-9.303c-1.464,0.885-3.219,1.396-5.079,1.396  c-1.853,0-3.609-0.511-5.072-1.396h-9.453c-1.459,0.885-3.224,1.396-5.079,1.396c-1.853,0-3.609-0.511-5.072-1.396H19.138z"/><path fill-rule="evenodd" clip-rule="evenodd" d="M25.472,14.891c3.943,0,7.12,2.713,7.12,6.083v2.489  c0,3.371-3.177,6.084-7.12,6.084c-3.948,0-7.125-2.713-7.125-6.084v-2.489C18.346,17.605,21.524,14.891,25.472,14.891z"/><path fill-rule="evenodd" clip-rule="evenodd" d="M64.529,14.891c-3.943,0-7.12,2.713-7.12,6.083v2.489  c0,3.371,3.177,6.084,7.12,6.084c3.948,0,7.125-2.713,7.125-6.084v-2.489C71.654,17.605,68.477,14.891,64.529,14.891z"/><path fill-rule="evenodd" clip-rule="evenodd" d="M45.07,14.891c3.948,0,7.125,2.713,7.125,6.083v2.489  c0,3.371-3.177,6.084-7.125,6.084c-3.943,0-7.119-2.713-7.119-6.084v-2.489C37.952,17.605,41.128,14.891,45.07,14.891z"/><text x="0" y="105" fill="#000000" font-size="5px" font-weight="bold" font-family="'Helvetica Neue', Helvetica, Arial-Unicode, Arial, Sans-serif">Created by Cuputo</text><text x="0" y="110" fill="#000000" font-size="5px" font-weight="bold" font-family="'Helvetica Neue', Helvetica, Arial-Unicode, Arial, Sans-serif">from the Noun Project</text></svg>